<svg width="32" height="33" viewBox="0 0 32 33" fill="none" xmlns="http://www.w3.org/2000/svg">
<path d="M23.0613 17.5612L13.0613 27.5612C12.7795 27.843 12.3973 28.0014 11.9988 28.0014C11.6002 28.0014 11.218 27.843 10.9363 27.5612C10.6545 27.2795 10.4962 26.8973 10.4962 26.4987C10.4962 26.1002 10.6545 25.718 10.9363 25.4362L19.875 16.5L10.9388 7.56125C10.7992 7.42172 10.6885 7.25607 10.613 7.07377C10.5375 6.89147 10.4987 6.69607 10.4987 6.49875C10.4987 6.30142 10.5375 6.10603 10.613 5.92373C10.6885 5.74142 10.7992 5.57578 10.9388 5.43625C11.0783 5.29672 11.2439 5.18604 11.4262 5.11053C11.6085 5.03501 11.8039 4.99615 12.0013 4.99615C12.1986 4.99615 12.394 5.03501 12.5763 5.11053C12.7586 5.18604 12.9242 5.29672 13.0638 5.43625L23.0638 15.4362C23.2034 15.5758 23.3142 15.7415 23.3897 15.9239C23.4652 16.1063 23.5039 16.3018 23.5037 16.4993C23.5035 16.6967 23.4643 16.8921 23.3883 17.0744C23.3124 17.2566 23.2013 17.4221 23.0613 17.5612Z" fill="black"/>
</svg>
