<svg width="32" height="33" viewBox="0 0 32 33" fill="none" xmlns="http://www.w3.org/2000/svg">
<path d="M21.0612 25.4388C21.343 25.7205 21.5013 26.1027 21.5013 26.5013C21.5013 26.8998 21.343 27.282 21.0612 27.5638C20.7794 27.8455 20.3973 28.0039 19.9987 28.0039C19.6002 28.0039 19.218 27.8455 18.9362 27.5638L8.93624 17.5638C8.7964 17.4244 8.68544 17.2588 8.60974 17.0765C8.53403 16.8942 8.49506 16.6987 8.49506 16.5013C8.49506 16.3038 8.53403 16.1084 8.60974 15.926C8.68544 15.7437 8.7964 15.5781 8.93624 15.4388L18.9362 5.43875C19.218 5.15696 19.6002 4.99865 19.9987 4.99865C20.3973 4.99865 20.7794 5.15696 21.0612 5.43875C21.343 5.72054 21.5013 6.10274 21.5013 6.50125C21.5013 6.89977 21.343 7.28196 21.0612 7.56375L12.125 16.5L21.0612 25.4388Z" fill="black"/>
</svg>
