<svg width="32" height="32" viewBox="0 0 32 32" fill="none" xmlns="http://www.w3.org/2000/svg">
<g clip-path="url(#clip0_58_4)">
<path d="M21.3334 4C22.3536 3.99994 23.3354 4.38977 24.0777 5.08971C24.82 5.78966 25.2668 6.74681 25.3267 7.76533L25.3334 8V21.3333H26.3334C27.196 21.3333 27.9067 21.9893 27.992 22.8293L28 23V25.3333C28.0001 26.3536 27.6103 27.3354 26.9103 28.0777C26.2104 28.82 25.2532 29.2668 24.2347 29.3267L24 29.3333H10.6667C9.64641 29.3334 8.66467 28.9436 7.92234 28.2436C7.18001 27.5437 6.73321 26.5865 6.67335 25.568L6.66669 25.3333V12H4.33335C3.92074 12.0002 3.52273 11.8473 3.21633 11.571C2.90994 11.2946 2.71694 10.9144 2.67469 10.504L2.66669 10.3333V8C2.66663 6.97972 3.05645 5.99798 3.7564 5.25565C4.45634 4.51332 5.4135 4.06652 6.43202 4.00667L6.66669 4H21.3334ZM21.3334 6.66667H9.33335V25.3333C9.33335 25.687 9.47383 26.0261 9.72388 26.2761C9.97393 26.5262 10.3131 26.6667 10.6667 26.6667C11.0203 26.6667 11.3594 26.5262 11.6095 26.2761C11.8595 26.0261 12 25.687 12 25.3333V23C12 22.08 12.7467 21.3333 13.6667 21.3333H22.6667V8C22.6667 7.64638 22.5262 7.30724 22.2762 7.05719C22.0261 6.80714 21.687 6.66667 21.3334 6.66667ZM25.3334 24H14.6667V25.3333C14.6667 25.8 14.5867 26.2493 14.44 26.6667H24C24.3536 26.6667 24.6928 26.5262 24.9428 26.2761C25.1929 26.0261 25.3334 25.687 25.3334 25.3333V24ZM16 16C16.3536 16 16.6928 16.1405 16.9428 16.3905C17.1929 16.6406 17.3334 16.9797 17.3334 17.3333C17.3334 17.687 17.1929 18.0261 16.9428 18.2761C16.6928 18.5262 16.3536 18.6667 16 18.6667H13.3334C12.9797 18.6667 12.6406 18.5262 12.3905 18.2761C12.1405 18.0261 12 17.687 12 17.3333C12 16.9797 12.1405 16.6406 12.3905 16.3905C12.6406 16.1405 12.9797 16 13.3334 16H16ZM18.6667 10.6667C19.0203 10.6667 19.3594 10.8071 19.6095 11.0572C19.8595 11.3072 20 11.6464 20 12C20 12.3536 19.8595 12.6928 19.6095 12.9428C19.3594 13.1929 19.0203 13.3333 18.6667 13.3333H13.3334C12.9797 13.3333 12.6406 13.1929 12.3905 12.9428C12.1405 12.6928 12 12.3536 12 12C12 11.6464 12.1405 11.3072 12.3905 11.0572C12.6406 10.8071 12.9797 10.6667 13.3334 10.6667H18.6667ZM6.66669 6.66667C6.34011 6.66671 6.0249 6.78661 5.78086 7.00362C5.53681 7.22063 5.3809 7.51967 5.34269 7.844L5.33335 8V9.33333H6.66669V6.66667Z" fill="#256F65"/>
</g>
<defs>
<clipPath id="clip0_58_4">
<rect width="32" height="32" fill="white"/>
</clipPath>
</defs>
</svg>
