<svg width="32" height="32" viewBox="0 0 32 32" fill="none" xmlns="http://www.w3.org/2000/svg">
<path d="M10.4 2.66669H21.6C25.8667 2.66669 29.3334 6.13335 29.3334 10.4V21.6C29.3334 23.651 28.5186 25.618 27.0683 27.0683C25.618 28.5186 23.651 29.3334 21.6 29.3334H10.4C6.13335 29.3334 2.66669 25.8667 2.66669 21.6V10.4C2.66669 8.34901 3.48145 6.38201 4.93173 4.93173C6.38201 3.48145 8.34901 2.66669 10.4 2.66669ZM10.1334 5.33335C8.86032 5.33335 7.63942 5.83907 6.73924 6.73924C5.83907 7.63942 5.33335 8.86032 5.33335 10.1334V21.8667C5.33335 24.52 7.48002 26.6667 10.1334 26.6667H21.8667C23.1397 26.6667 24.3606 26.161 25.2608 25.2608C26.161 24.3606 26.6667 23.1397 26.6667 21.8667V10.1334C26.6667 7.48002 24.52 5.33335 21.8667 5.33335H10.1334ZM23 7.33335C23.4421 7.33335 23.866 7.50895 24.1785 7.82151C24.4911 8.13407 24.6667 8.55799 24.6667 9.00002C24.6667 9.44205 24.4911 9.86597 24.1785 10.1785C23.866 10.4911 23.4421 10.6667 23 10.6667C22.558 10.6667 22.1341 10.4911 21.8215 10.1785C21.509 9.86597 21.3334 9.44205 21.3334 9.00002C21.3334 8.55799 21.509 8.13407 21.8215 7.82151C22.1341 7.50895 22.558 7.33335 23 7.33335ZM16 9.33336C17.7681 9.33336 19.4638 10.0357 20.7141 11.286C21.9643 12.5362 22.6667 14.2319 22.6667 16C22.6667 17.7681 21.9643 19.4638 20.7141 20.7141C19.4638 21.9643 17.7681 22.6667 16 22.6667C14.2319 22.6667 12.5362 21.9643 11.286 20.7141C10.0357 19.4638 9.33336 17.7681 9.33336 16C9.33336 14.2319 10.0357 12.5362 11.286 11.286C12.5362 10.0357 14.2319 9.33336 16 9.33336ZM16 12C14.9392 12 13.9217 12.4214 13.1716 13.1716C12.4214 13.9217 12 14.9392 12 16C12 17.0609 12.4214 18.0783 13.1716 18.8285C13.9217 19.5786 14.9392 20 16 20C17.0609 20 18.0783 19.5786 18.8285 18.8285C19.5786 18.0783 20 17.0609 20 16C20 14.9392 19.5786 13.9217 18.8285 13.1716C18.0783 12.4214 17.0609 12 16 12Z" fill="#256F65"/>
</svg>
