<svg width="32" height="32" viewBox="0 0 32 32" fill="none" xmlns="http://www.w3.org/2000/svg">
<path d="M26.6666 2.66667H5.33329C4.62605 2.66667 3.94777 2.94762 3.44767 3.44772C2.94758 3.94782 2.66663 4.62609 2.66663 5.33334V29.3333L7.99996 24H26.6666C27.3739 24 28.0521 23.7191 28.5522 23.219C29.0523 22.7189 29.3333 22.0406 29.3333 21.3333V5.33334C29.3333 4.62609 29.0523 3.94782 28.5522 3.44772C28.0521 2.94762 27.3739 2.66667 26.6666 2.66667ZM7.99996 12H24V14.6667H7.99996M18.6666 18.6667H7.99996V16H18.6666M24 10.6667H7.99996V8H24" fill="#256F65"/>
</svg>
