<svg width="32" height="32" viewBox="0 0 32 32" fill="none" xmlns="http://www.w3.org/2000/svg">
<path d="M2.66671 25.3333V22.6667H29.3334V25.3333H2.66671ZM4.20004 17.2667L2.46671 16.2667L3.60004 14.2667H1.33337V12.2667H3.60004L2.46671 10.3333L4.20004 9.33334L5.33337 11.2667L6.46671 9.33334L8.20004 10.3333L7.06671 12.2667H9.33337V14.2667H7.06671L8.20004 16.2667L6.46671 17.2667L5.33337 15.2667L4.20004 17.2667ZM14.8667 17.2667L13.1334 16.2667L14.2667 14.2667H12V12.2667H14.2667L13.1334 10.3333L14.8667 9.33334L16 11.2667L17.1334 9.33334L18.8667 10.3333L17.7334 12.2667H20V14.2667H17.7334L18.8667 16.2667L17.1334 17.2667L16 15.2667L14.8667 17.2667ZM25.5334 17.2667L23.8 16.2667L24.9334 14.2667H22.6667V12.2667H24.9334L23.8 10.3333L25.5334 9.33334L26.6667 11.2667L27.8 9.33334L29.5334 10.3333L28.4 12.2667H30.6667V14.2667H28.4L29.5334 16.2667L27.8 17.2667L26.6667 15.2667L25.5334 17.2667Z" fill="#256F65"/>
</svg>
