<svg width="32" height="33" viewBox="0 0 32 33" fill="none" xmlns="http://www.w3.org/2000/svg">
<path d="M29.0613 27.4387L23.125 21.5C24.9049 19.1806 25.7359 16.271 25.4494 13.3614C25.1629 10.4519 23.7804 7.76021 21.5823 5.83248C19.3842 3.90476 16.5352 2.88531 13.6131 2.98094C10.6911 3.07658 7.91478 4.28013 5.84746 6.34745C3.78014 8.41477 2.57659 11.1911 2.48096 14.1131C2.38533 17.0352 3.40477 19.8842 5.3325 22.0823C7.26022 24.2804 9.95187 25.6629 12.8614 25.9494C15.771 26.2359 18.6806 25.4049 21 23.625L26.9413 29.5675C27.0808 29.707 27.2464 29.8177 27.4287 29.8932C27.611 29.9687 27.8064 30.0076 28.0038 30.0076C28.2011 30.0076 28.3965 29.9687 28.5788 29.8932C28.7611 29.8177 28.9267 29.707 29.0663 29.5675C29.2058 29.428 29.3165 29.2623 29.392 29.08C29.4675 28.8977 29.5064 28.7023 29.5064 28.505C29.5064 28.3077 29.4675 28.1123 29.392 27.93C29.3165 27.7477 29.2058 27.582 29.0663 27.4425L29.0613 27.4387ZM5.50001 14.5C5.50001 12.8189 5.99853 11.1755 6.93252 9.77765C7.86651 8.37983 9.19403 7.29037 10.7472 6.64702C12.3004 6.00368 14.0094 5.83535 15.6583 6.16332C17.3071 6.4913 18.8217 7.30084 20.0104 8.48959C21.1992 9.67834 22.0087 11.1929 22.3367 12.8417C22.6647 14.4906 22.4963 16.1996 21.853 17.7528C21.2096 19.306 20.1202 20.6335 18.7224 21.5675C17.3245 22.5015 15.6812 23 14 23C11.7464 22.9977 9.58572 22.1014 7.99216 20.5078C6.39861 18.9143 5.50233 16.7536 5.50001 14.5Z" fill="#256F65"/>
</svg>
