<svg width="160" height="32" viewBox="0 0 160 32" fill="none" xmlns="http://www.w3.org/2000/svg">
<path d="M7.76669 29.3333L9.93335 19.9667L2.66669 13.6667L12.2667 12.8333L16 4L19.7334 12.8333L29.3334 13.6667L22.0667 19.9667L24.2334 29.3333L16 24.3667L7.76669 29.3333Z" fill="#FFA500"/>
<path d="M39.7667 29.3333L41.9334 19.9667L34.6667 13.6667L44.2667 12.8333L48 4L51.7334 12.8333L61.3334 13.6667L54.0667 19.9667L56.2334 29.3333L48 24.3667L39.7667 29.3333Z" fill="#FFA500"/>
<path d="M71.7667 29.3333L73.9334 19.9667L66.6667 13.6667L76.2667 12.8333L80 4L83.7334 12.8333L93.3334 13.6667L86.0667 19.9667L88.2334 29.3333L80 24.3667L71.7667 29.3333Z" fill="#FFA500"/>
<path d="M103.767 29.3333L105.933 19.9667L98.6667 13.6667L108.267 12.8333L112 4L115.733 12.8333L125.333 13.6667L118.067 19.9667L120.233 29.3333L112 24.3667L103.767 29.3333Z" fill="#FFA500"/>
<path d="M135.767 29.3333L137.933 19.9667L130.667 13.6667L140.267 12.8333L144 4L147.733 12.8333L157.333 13.6667L150.067 19.9667L152.233 29.3333L144 24.3667L135.767 29.3333Z" fill="#FFA500"/>
</svg>
