<svg width="32" height="32" viewBox="0 0 32 32" fill="none" xmlns="http://www.w3.org/2000/svg">
<g clip-path="url(#clip0_25_25)">
<path d="M31.9851 3.37493C32.0155 3.19172 31.9976 3.00373 31.9331 2.82956C31.8686 2.65539 31.7597 2.50109 31.6173 2.38191C31.4748 2.26274 31.3037 2.18282 31.1209 2.15007C30.9381 2.11733 30.7499 2.13288 30.5749 2.1952L0.708275 12.8619C0.511406 12.9321 0.3395 13.0586 0.213911 13.2256C0.0883217 13.3927 0.014584 13.593 0.00185753 13.8016C-0.010869 14.0102 0.0379766 14.218 0.142327 14.3991C0.246677 14.5802 0.401932 14.7267 0.588808 14.8203L9.12214 19.0869C9.29031 19.1711 9.47774 19.2093 9.66544 19.1977C9.85314 19.1861 10.0344 19.1251 10.1909 19.0208L17.2736 14.2976L13.0347 19.6011C12.9424 19.7165 12.8752 19.8498 12.8372 19.9926C12.7992 20.1354 12.7912 20.2846 12.8139 20.4306C12.8366 20.5766 12.8893 20.7163 12.9688 20.8409C13.0483 20.9654 13.1528 21.0721 13.2757 21.1541L26.0757 29.6875C26.224 29.786 26.3945 29.8459 26.5718 29.8617C26.7491 29.8775 26.9275 29.8486 27.0908 29.7778C27.2541 29.7069 27.397 29.5964 27.5067 29.4562C27.6163 29.3159 27.6891 29.1505 27.7184 28.9749L31.9851 3.37493Z" fill="#256F65"/>
</g>
<defs>
<clipPath id="clip0_25_25">
<rect width="32" height="32" fill="white"/>
</clipPath>
</defs>
</svg>
