<svg width="32" height="32" viewBox="0 0 32 32" fill="none" xmlns="http://www.w3.org/2000/svg">
<path d="M16 28C14.3333 28 12.772 27.6831 11.316 27.0493C9.86 26.4156 8.59333 25.5604 7.516 24.484C6.43867 23.4058 5.58356 22.1391 4.95067 20.684C4.31778 19.2289 4.00089 17.6676 4 16C4 14.3333 4.31689 12.772 4.95067 11.316C5.58444 9.86 6.43956 8.59333 7.516 7.516C8.59422 6.43867 9.86089 5.58356 11.316 4.95067C12.7711 4.31778 14.3324 4.00089 16 4C17.8222 4 19.5502 4.38889 21.184 5.16667C22.8178 5.94444 24.2009 7.04444 25.3333 8.46667V5.33333H28V13.3333H20V10.6667H23.6667C22.7556 9.42222 21.6333 8.44444 20.3 7.73333C18.9667 7.02222 17.5333 6.66667 16 6.66667C13.4 6.66667 11.1942 7.57244 9.38267 9.384C7.57111 11.1956 6.66578 13.4009 6.66667 16C6.66667 18.6 7.57244 20.8058 9.384 22.6173C11.1956 24.4289 13.4009 25.3342 16 25.3333C18.3333 25.3333 20.3724 24.5778 22.1173 23.0667C23.8622 21.5556 24.8898 19.6444 25.2 17.3333H27.9333C27.6 20.3778 26.2947 22.9169 24.0173 24.9507C21.74 26.9844 19.0676 28.0009 16 28ZM19.7333 21.6L14.6667 16.5333V9.33333H17.3333V15.4667L21.6 19.7333L19.7333 21.6Z" fill="#256F65"/>
</svg>
