<svg width="32" height="32" viewBox="0 0 32 32" fill="none" xmlns="http://www.w3.org/2000/svg">
<g clip-path="url(#clip0_20_16)">
<path d="M3.42859 28.2286C3.4368 28.7048 3.57537 29.1696 3.82924 29.5726C4.08312 29.9756 4.44259 30.3013 4.86859 30.5143C5.29398 30.7546 5.77428 30.881 6.26287 30.881C6.75147 30.881 7.23177 30.7546 7.65716 30.5143L27.4286 18.2857C27.8588 18.0785 28.2218 17.754 28.4758 17.3497C28.7298 16.9453 28.8645 16.4775 28.8645 16C28.8645 15.5225 28.7298 15.0547 28.4758 14.6503C28.2218 14.246 27.8588 13.9215 27.4286 13.7143L7.65716 1.57715C7.23177 1.33679 6.75147 1.21048 6.26287 1.21048C5.77428 1.21048 5.29398 1.33679 4.86859 1.57715C4.44259 1.79015 4.08312 2.11584 3.82924 2.51882C3.57537 2.92179 3.4368 3.38665 3.42859 3.86286V28.2286Z" stroke="#256F65" stroke-width="3" stroke-linecap="round" stroke-linejoin="round"/>
</g>
<defs>
<clipPath id="clip0_20_16">
<rect width="32" height="32" fill="white"/>
</clipPath>
</defs>
</svg>
