<svg width="32" height="32" viewBox="0 0 32 32" fill="none" xmlns="http://www.w3.org/2000/svg">
<path d="M13.3335 20.0003L20.2535 16.0003L13.3335 12.0003V20.0003ZM28.7468 9.56032C28.9201 10.187 29.0401 11.027 29.1201 12.0937C29.2135 13.1603 29.2535 14.0803 29.2535 14.8803L29.3335 16.0003C29.3335 18.9203 29.1201 21.067 28.7468 22.4403C28.4135 23.6403 27.6401 24.4137 26.4401 24.747C25.8135 24.9203 24.6668 25.0403 22.9068 25.1203C21.1735 25.2137 19.5868 25.2537 18.1201 25.2537L16.0001 25.3337C10.4135 25.3337 6.93341 25.1203 5.56008 24.747C4.36008 24.4137 3.58675 23.6403 3.25341 22.4403C3.08008 21.8137 2.96008 20.9737 2.88008 19.907C2.78675 18.8403 2.74675 17.9203 2.74675 17.1203L2.66675 16.0003C2.66675 13.0803 2.88008 10.9337 3.25341 9.56032C3.58675 8.36032 4.36008 7.58699 5.56008 7.25365C6.18675 7.08032 7.33341 6.96032 9.09342 6.88032C10.8268 6.78699 12.4135 6.74699 13.8801 6.74699L16.0001 6.66699C21.5868 6.66699 25.0668 6.88032 26.4401 7.25365C27.6401 7.58699 28.4135 8.36032 28.7468 9.56032Z" fill="white"/>
</svg>
